<?xml version="1.0" encoding="UTF-8" standalone="no"?>
<svg
   width="16"
   height="16"
   version="1.1"
   id="svg4"
   sodipodi:docname="ResourcePreloader.svg"
   inkscape:version="1.1.2 (0a00cf5339, 2022-02-04)"
   xmlns:inkscape="http://www.inkscape.org/namespaces/inkscape"
   xmlns:sodipodi="http://sodipodi.sourceforge.net/DTD/sodipodi-0.dtd"
   xmlns="http://www.w3.org/2000/svg"
   xmlns:svg="http://www.w3.org/2000/svg">
  <defs
     id="defs8" />
  <sodipodi:namedview
     id="namedview6"
     pagecolor="#ffffff"
     bordercolor="#666666"
     borderopacity="1.0"
     inkscape:pageshadow="2"
     inkscape:pageopacity="0.0"
     inkscape:pagecheckerboard="0"
     showgrid="false"
     inkscape:zoom="22.627417"
     inkscape:cx="3.9774756"
     inkscape:cy="1.1048543"
     inkscape:window-width="1920"
     inkscape:window-height="1052"
     inkscape:window-x="0"
     inkscape:window-y="0"
     inkscape:window-maximized="1"
     inkscape:current-layer="svg4" />
  <path
     fill="#e0e0e0"
     d="M 1.553,4.104 C 1.2142706,4.2732635 1.0002022,4.6193343 1,4.998 v 6 c -1.7662e-4,0.379026 0.2139484,0.725575 0.553,0.895 l 6,3 c 0.2814108,0.140621 0.6125892,0.140621 0.894,0 l 6,-3 C 14.786052,11.723575 15.000177,11.377026 15,10.998 v -6 C 14.999798,4.6193343 14.785729,4.2732635 14.447,4.104 l -6,-3 C 8.1655892,0.96337861 7.8344108,0.96337861 7.553,1.104 Z M 8,3.119 11.764,5 7.9456818,6.9210207 l -3.764,-1.883 z m -5,3.5 4,2 v 3.764 l -4,-2 z"
     id="path2"
     sodipodi:nodetypes="ccccccccccccccccccccccc"
     style="fill:#c38ef1;fill-opacity:1" />
</svg>
