<?xml version="1.0" encoding="UTF-8" standalone="no"?>
<svg
   width="16"
   height="16"
   version="1.1"
   id="svg4"
   sodipodi:docname="DialogueResource.svg"
   inkscape:version="1.1.2 (0a00cf5339, 2022-02-04)"
   xmlns:inkscape="http://www.inkscape.org/namespaces/inkscape"
   xmlns:sodipodi="http://sodipodi.sourceforge.net/DTD/sodipodi-0.dtd"
   xmlns="http://www.w3.org/2000/svg"
   xmlns:svg="http://www.w3.org/2000/svg">
  <defs
     id="defs8" />
  <sodipodi:namedview
     id="namedview6"
     pagecolor="#ffffff"
     bordercolor="#666666"
     borderopacity="1.0"
     inkscape:pageshadow="2"
     inkscape:pageopacity="0.0"
     inkscape:pagecheckerboard="0"
     showgrid="false"
     inkscape:zoom="11.313709"
     inkscape:cx="4.7729706"
     inkscape:cy="36.857939"
     inkscape:window-width="1920"
     inkscape:window-height="1052"
     inkscape:window-x="0"
     inkscape:window-y="0"
     inkscape:window-maximized="1"
     inkscape:current-layer="svg4"
     showguides="false" />
  <g
     id="g10196"
     transform="translate(0.03515637,-0.20592945)"
     style="fill-opacity:1;fill:#c38ef1">
    <path
       id="path7537"
       style="fill:#c38ef1;fill-opacity:1;stroke:none;stroke-width:1px;stroke-linecap:butt;stroke-linejoin:miter;stroke-opacity:1"
       d="M 3.9296875 1.7617188 C 2.0510251 1.7617188 0.5390625 3.2756344 0.5390625 5.1542969 L 0.5390625 6.9804688 C 0.5390625 8.8591313 2.0510251 10.371094 3.9296875 10.371094 L 8.1445312 10.371094 L 4.2988281 14.238281 C 4.2988281 14.238281 11.234324 11.672576 13.867188 9.8535156 C 13.874655 9.8483566 13.883227 9.8430376 13.890625 9.8378906 C 14.058961 9.7307113 14.217028 9.6089644 14.363281 9.4746094 C 14.393887 9.4480975 14.421159 9.4225015 14.449219 9.3964844 C 14.455885 9.3903034 14.46223 9.3850584 14.46875 9.3789062 C 14.471044 9.3766142 14.472322 9.3733923 14.474609 9.3710938 C 14.599405 9.2525516 14.701955 9.1396793 14.767578 9.0332031 C 15.201233 8.4637542 15.460938 7.7545418 15.460938 6.9804688 L 15.460938 5.1542969 C 15.460938 3.2756344 13.947022 1.7617188 12.068359 1.7617188 L 3.9296875 1.7617188 z M 4.7832031 4.8457031 A 1.2222134 1.2222134 0 0 1 6.0039062 6.0664062 A 1.2222134 1.2222134 0 0 1 4.7832031 7.2890625 A 1.2222134 1.2222134 0 0 1 3.5605469 6.0664062 A 1.2222134 1.2222134 0 0 1 4.7832031 4.8457031 z M 8 4.8457031 A 1.2222134 1.2222134 0 0 1 9.2207031 6.0664062 A 1.2222134 1.2222134 0 0 1 8 7.2890625 A 1.2222134 1.2222134 0 0 1 6.7773438 6.0664062 A 1.2222134 1.2222134 0 0 1 8 4.8457031 z M 11.214844 4.8457031 A 1.2222134 1.2222134 0 0 1 12.4375 6.0664062 A 1.2222134 1.2222134 0 0 1 11.214844 7.2890625 A 1.2222134 1.2222134 0 0 1 9.9941406 6.0664062 A 1.2222134 1.2222134 0 0 1 11.214844 4.8457031 z "
       transform="translate(-0.03515637,0.20592945)" />
  </g>
  <g
     id="g8695"
     transform="matrix(1.2222134,0,0,1.2222134,-1.0126313,-2.0889531)">
    <g
       id="g9256">
      <g
         id="g9261"
         transform="translate(-0.76770393,0.18181228)">
        <g
           id="g9967" />
      </g>
    </g>
  </g>
</svg>
