<?xml version="1.0" encoding="UTF-8" standalone="no"?>
<svg
   width="16"
   height="16"
   version="1.1"
   id="svg4"
   sodipodi:docname="DialogueResourceChoice.svg"
   inkscape:version="1.1.2 (0a00cf5339, 2022-02-04)"
   xmlns:inkscape="http://www.inkscape.org/namespaces/inkscape"
   xmlns:sodipodi="http://sodipodi.sourceforge.net/DTD/sodipodi-0.dtd"
   xmlns="http://www.w3.org/2000/svg"
   xmlns:svg="http://www.w3.org/2000/svg">
  <defs
     id="defs8" />
  <sodipodi:namedview
     id="namedview6"
     pagecolor="#ffffff"
     bordercolor="#666666"
     borderopacity="1.0"
     inkscape:pageshadow="2"
     inkscape:pageopacity="0.0"
     inkscape:pagecheckerboard="0"
     showgrid="false"
     inkscape:zoom="32"
     inkscape:cx="8.1503742"
     inkscape:cy="3.9486899"
     inkscape:window-width="1920"
     inkscape:window-height="1052"
     inkscape:window-x="0"
     inkscape:window-y="0"
     inkscape:window-maximized="1"
     inkscape:current-layer="g25291"
     showguides="false" />
  <g
     id="g10196"
     transform="translate(0.03515637,-0.20592945)"
     style="fill-opacity:1;fill:#c38ef1">
    <g
       id="g25291">
      <g
         aria-label="?"
         id="text14075"
         style="font-weight:bold;font-size:10.6667px;line-height:1.15;-inkscape-font-specification:'sans-serif Bold';fill:#000000"
         transform="translate(-0.38251263,0.21425247)" />
      <g
         id="g25334">
        <path
           id="path25476"
           style="fill:#c38ef1;fill-opacity:1;stroke-width:0.369836;stop-color:#000000"
           d="m 8.9133925,9.6669254 a 1,1 0 0 1 -1,0.9999996 1,1 0 0 1 -1,-0.9999996 1,1 0 0 1 1,-1 1,1 0 0 1 1,1 z M 8.9000315,7.4222852 C 8.9329957,7.8792821 8.530595,8.2580017 8.0933914,8.2970192 7.6449204,8.3736352 7.1134672,8.1147938 7.0372054,7.6348305 6.9898053,7.1392963 7.0043812,6.5905602 7.3362449,6.1862381 7.6883699,5.7005476 8.2067222,5.3726979 8.5808776,4.908402 8.8500397,4.5854277 8.9394208,4.0425064 8.602179,3.7347532 8.2175375,3.4047994 7.655865,3.4814176 7.203086,3.6000076 6.7727862,3.6927029 6.4241523,3.9644044 6.0613336,4.1948479 5.8380993,4.3438105 5.4696895,4.3753629 5.3223486,4.1061635 5.0788093,3.6321048 5.338198,3.0379882 5.7320335,2.7292373 6.092041,2.4630024 6.5442464,2.3681484 6.970474,2.2598869 7.8385684,2.0766764 8.7804755,2.0549229 9.6126601,2.399666 c 0.5748109,0.2357124 1.0031279,0.7844908 1.0660219,1.40599 0.0937,0.6069916 -0.06167,1.2545146 -0.476355,1.7166192 C 9.8534972,5.9821451 9.3246917,6.2738775 9.0094069,6.7608248 8.8846512,6.9613678 8.8996967,7.196982 8.9000315,7.4222852 Z M 3.8945083,1.072875 c -1.8786624,0 -3.39062499,1.5139157 -3.39062499,3.3925781 V 8.081172 c 0,1.8786626 1.51196259,3.390625 3.39062499,3.390625 H 8.109352 l -3.8457031,3.867187 c 0,0 6.9354961,-2.565705 9.5683601,-4.384765 0.0075,-0.0052 0.01604,-0.01048 0.02344,-0.01563 0.168336,-0.107179 0.326403,-0.228926 0.472656,-0.363281 0.03061,-0.02651 0.05788,-0.05211 0.08594,-0.07813 0.0067,-0.0062 0.01301,-0.01143 0.01953,-0.01758 0.0023,-0.0023 0.0036,-0.0055 0.0059,-0.0078 0.124796,-0.118542 0.227346,-0.231415 0.292969,-0.337891 0.433655,-0.569449 0.69336,-1.2786614 0.69336,-2.0527344 V 4.4654531 c 0,-1.8786624 -1.513916,-3.3925781 -3.392579,-3.3925781 z" />
      </g>
    </g>
  </g>
  <g
     id="g8695"
     transform="matrix(1.2222134,0,0,1.2222134,-1.0126313,-2.0889531)">
    <g
       id="g9256">
      <g
         id="g9261"
         transform="translate(-0.76770393,0.18181228)">
        <g
           id="g9967" />
      </g>
    </g>
  </g>
</svg>
