<?xml version="1.0" encoding="UTF-8" standalone="no"?>
<svg
   width="16"
   height="16"
   version="1.1"
   id="svg6"
   sodipodi:docname="NewCutscene.svg"
   inkscape:version="1.1.2 (0a00cf5339, 2022-02-04)"
   xmlns:inkscape="http://www.inkscape.org/namespaces/inkscape"
   xmlns:sodipodi="http://sodipodi.sourceforge.net/DTD/sodipodi-0.dtd"
   xmlns="http://www.w3.org/2000/svg"
   xmlns:svg="http://www.w3.org/2000/svg">
  <defs
     id="defs10" />
  <sodipodi:namedview
     id="namedview8"
     pagecolor="#ffffff"
     bordercolor="#666666"
     borderopacity="1.0"
     inkscape:pageshadow="2"
     inkscape:pageopacity="0.0"
     inkscape:pagecheckerboard="0"
     showgrid="false"
     inkscape:zoom="4.8061164"
     inkscape:cx="15.084945"
     inkscape:cy="-16.853524"
     inkscape:window-width="1920"
     inkscape:window-height="1052"
     inkscape:window-x="0"
     inkscape:window-y="0"
     inkscape:window-maximized="1"
     inkscape:current-layer="svg6" />
  <path
     fill="#e0e0e0"
     d="m14.564 2-2.244.328.818 1.9 1.715-.25zm-4.223.615-1.978.29.818 1.902 1.979-.29zm-3.959.578-1.978.29.818 1.902 1.979-.29zm-3.957.578-1.714.25L1 6l2.244-.328zM1 7v6a2 2 0 0 0 2 2h7v-1H8v-4h2V8h4v2h1V7z"
     id="path2"
     style="fill:#c38ef1;fill-opacity:1" />
  <path
     fill="#5fff97"
     d="M13 13h2v-2h-2V9h-2v2H9v2h2v2h2z"
     id="path4" />
</svg>
