<?xml version="1.0" encoding="UTF-8" standalone="no"?>
<svg
   width="16"
   height="16"
   version="1.1"
   id="svg4"
   sodipodi:docname="OpenCutsceneBiggerOutline (copy).svg"
   inkscape:version="1.1.2 (0a00cf5339, 2022-02-04)"
   xmlns:inkscape="http://www.inkscape.org/namespaces/inkscape"
   xmlns:sodipodi="http://sodipodi.sourceforge.net/DTD/sodipodi-0.dtd"
   xmlns="http://www.w3.org/2000/svg"
   xmlns:svg="http://www.w3.org/2000/svg">
  <defs
     id="defs8" />
  <sodipodi:namedview
     id="namedview6"
     pagecolor="#ffffff"
     bordercolor="#666666"
     borderopacity="1.0"
     inkscape:pageshadow="2"
     inkscape:pageopacity="0.0"
     inkscape:pagecheckerboard="0"
     showgrid="false"
     inkscape:zoom="38.448931"
     inkscape:cx="8.4267622"
     inkscape:cy="18.153951"
     inkscape:window-width="1920"
     inkscape:window-height="1052"
     inkscape:window-x="0"
     inkscape:window-y="0"
     inkscape:window-maximized="1"
     inkscape:current-layer="svg4" />
  <path
     id="path2"
     style="fill:#c38ef1;fill-opacity:1"
     d="M 14.564453 2 L 12.320312 2.328125 L 13.138672 4.2285156 L 14.853516 3.9785156 L 14.564453 2 z M 10.341797 2.6152344 L 8.3632812 2.9042969 L 9.1816406 4.8066406 L 11.160156 4.5175781 L 10.341797 2.6152344 z M 6.3828125 3.1933594 L 4.4042969 3.4824219 L 5.2226562 5.3847656 L 7.2011719 5.0957031 L 6.3828125 3.1933594 z M 2.4257812 3.7714844 L 0.7109375 4.0214844 L 1 6 L 3.2441406 5.671875 L 2.4257812 3.7714844 z M 1 7 L 1 13 C 1 14.104569 1.8954305 15 3 15 L 7.6464844 15 L 7.6464844 10.994141 L 7.6464844 10.193359 L 7.6464844 9.2480469 L 12.740234 9.2480469 L 12.740234 10.048828 L 15 10.048828 L 15 7 L 1 7 z M 9.5371094 11.138672 L 9.5371094 14.054688 L 11.794922 14.054688 L 14.054688 14.054688 L 14.054688 11.939453 L 10.851562 11.939453 L 10.851562 11.138672 L 9.5371094 11.138672 z " />
  <path
     id="rect843-3"
     style="fill:#ffe376;fill-opacity:1;stroke-width:0.314021;stop-color:#000000"
     d="M 8.5913982,10.193549 V 10.994624 15 H 11.795699 15 v -4.005376 h -3.204301 v -0.801075 z" />
</svg>
