<?xml version="1.0" encoding="UTF-8" standalone="no"?>
<svg
   width="16"
   height="16"
   version="1.1"
   id="svg4"
   sodipodi:docname="StopSignExclimation.svg"
   inkscape:version="1.1.2 (0a00cf5339, 2022-02-04)"
   xmlns:inkscape="http://www.inkscape.org/namespaces/inkscape"
   xmlns:sodipodi="http://sodipodi.sourceforge.net/DTD/sodipodi-0.dtd"
   xmlns="http://www.w3.org/2000/svg"
   xmlns:svg="http://www.w3.org/2000/svg">
  <defs
     id="defs8" />
  <sodipodi:namedview
     id="namedview6"
     pagecolor="#ffffff"
     bordercolor="#666666"
     borderopacity="1.0"
     inkscape:pageshadow="2"
     inkscape:pageopacity="0.0"
     inkscape:pagecheckerboard="0"
     showgrid="false"
     inkscape:zoom="32"
     inkscape:cx="1.390625"
     inkscape:cy="2.90625"
     inkscape:window-width="1920"
     inkscape:window-height="1052"
     inkscape:window-x="0"
     inkscape:window-y="0"
     inkscape:window-maximized="1"
     inkscape:current-layer="svg4" />
  <path
     id="path1396"
     style="fill:#c38ef1;fill-opacity:1;stroke-width:0.392;stop-color:#000000"
     d="M 10.738281 1.3847656 L 5.2578125 1.3867188 L 1.3847656 5.2617188 L 1.3867188 10.742188 L 5.2617188 14.615234 L 10.742188 14.613281 L 14.615234 10.738281 L 14.613281 5.2578125 L 10.738281 1.3847656 z M 7.9804688 3.4589844 C 8.5344688 3.4589844 8.9804688 3.9491938 8.9804688 4.5585938 L 8.9804688 8.359375 C 8.9804688 8.9687751 8.5344688 9.4589844 7.9804688 9.4589844 C 7.4264687 9.4589844 6.9804688 8.9687751 6.9804688 8.359375 L 6.9804688 4.5585938 C 6.9804688 3.9491938 7.4264687 3.4589844 7.9804688 3.4589844 z M 8 10.240234 C 8.6370999 10.240234 9.1503906 10.753525 9.1503906 11.390625 C 9.1503906 12.027725 8.6370999 12.541016 8 12.541016 C 7.3629 12.541016 6.8496094 12.027725 6.8496094 11.390625 C 6.8496094 10.753525 7.3629 10.240234 8 10.240234 z " />
</svg>
