<?xml version="1.0" encoding="UTF-8" standalone="no"?>
<svg
   width="16"
   height="16"
   version="1.1"
   id="svg4"
   sodipodi:docname="StopSign.svg"
   inkscape:version="1.1.2 (0a00cf5339, 2022-02-04)"
   xmlns:inkscape="http://www.inkscape.org/namespaces/inkscape"
   xmlns:sodipodi="http://sodipodi.sourceforge.net/DTD/sodipodi-0.dtd"
   xmlns="http://www.w3.org/2000/svg"
   xmlns:svg="http://www.w3.org/2000/svg">
  <defs
     id="defs8" />
  <sodipodi:namedview
     id="namedview6"
     pagecolor="#ffffff"
     bordercolor="#666666"
     borderopacity="1.0"
     inkscape:pageshadow="2"
     inkscape:pageopacity="0.0"
     inkscape:pagecheckerboard="0"
     showgrid="false"
     inkscape:zoom="8"
     inkscape:cx="-36.6875"
     inkscape:cy="24.875"
     inkscape:window-width="1920"
     inkscape:window-height="1052"
     inkscape:window-x="0"
     inkscape:window-y="0"
     inkscape:window-maximized="1"
     inkscape:current-layer="g17166" />
  <g
     id="g17166"
     transform="translate(-0.74531174)">
    <path
       id="path841"
       style="fill:#c38ef1;fill-opacity:1;stroke-width:0.229666;stop-color:#000000"
       d="m 8.3627896,2.99489 c -0.359912,0 -0.650337,0.2819105 -0.650337,0.6323653 v 3.3909602 c 0.00637,0.1740655 -0.2689167,0.163821 -0.2666102,0 V 4.2551277 c 0,-0.3504549 -0.289302,-0.6323653 -0.649214,-0.6323653 -0.359911,0 -0.650336,0.2819104 -0.650336,0.6323653 V 8.0538118 L 5.5060644,6.9631784 C 5.3028384,6.6167748 4.8664094,6.498296 4.5277514,6.6969785 l -0.05504,0.032573 c -0.33866,0.1986822 -0.446964,0.637525 -0.243737,0.9839286 l 1.517311,3.6409629 c 0.793495,1.898281 6.5628696,2.567361 6.5085776,-0.223158 l 0.0022,-6.2752421 c 0,-0.3504548 -0.279449,-0.6334884 -0.626749,-0.6334884 h -0.04493 c -0.347301,0 -0.62675,0.2830336 -0.62675,0.6334884 v 2.1621724 c -0.02145,0.1502336 -0.329309,0.1356702 -0.325025,0 V 3.9788189 c 0,-0.3504548 -0.279449,-0.6323653 -0.626749,-0.6323653 H 9.96193 c -0.3473,0 -0.627872,0.2819105 -0.627872,0.6323653 v 3.0393966 c 0.013069,0.1576171 -0.3277388,0.1751478 -0.3221102,0 V 3.6272553 c 0,-0.3504548 -0.289302,-0.6323653 -0.649213,-0.6323653 z m 6.9980104,7.743255 -3.873793,3.875873 -5.4798406,0.0015 -3.8758723,-3.873793 -0.00147,-5.4798403 3.8737927,-3.8758723 5.4798402,-0.00147 3.875873,3.8737927 z"
       sodipodi:nodetypes="csccsssccccccccsssccssssccsccccccccccc" />
  </g>
</svg>
